<?xml version="1.0" encoding="UTF-8"?>
<svg width="18px" height="18px" viewBox="0 0 18 18" version="1.1" xmlns="http://www.w3.org/2000/svg" xmlns:xlink="http://www.w3.org/1999/xlink">
    <!-- Generator: Sketch 53.2 (72643) - https://sketchapp.com -->
    <title>Group 29</title>
    <desc>Created with Sketch.</desc>
    <g id="ChaosDEX" stroke="none" stroke-width="1" fill="none" fill-rule="evenodd">
        <g id="stats" transform="translate(-971.000000, -41.000000)">
            <g id="Group-29" transform="translate(971.000000, 41.000000)">
                <path d="M3.20262647,2.08248649 C1.6149122,3.41541501 0.534721656,5.29140619 0.157483553,7.36922362 L8.93491243,8.91779528 L8.93491243,-2.84217094e-13 C6.82424551,0.0109584488 4.79034099,0.7495579 3.20262647,2.08248649" id="Fill-1" fill="#5D616B"></path>
                <path d="M1.1908203,13.4206109 L8.84548709,8.99873398 L0.141010701,7.46312192 C-0.22451313,9.59363488 0.118915457,11.5434764 1.1908203,13.4206109" id="Fill-4" fill="#E0E3EB"></path>
                <path d="M16.7266251,13.5031037 L8.98253029,9.02957956 L1.23843544,13.5031037 C2.05472111,14.9029267 3.09148297,15.9345454 4.49776862,16.7469 C6.57272105,17.9455637 8.98986394,18.2638359 11.3040542,17.6433965 C13.6030067,17.0271507 15.526911,15.5575745 16.7266251,13.5031037" id="Fill-6" fill="#E0E3EB"></path>
                <path d="M17.8379602,7.41226632 C17.4781507,5.36999259 16.3945319,3.49619317 14.7845316,2.130294 L9.05548417,8.96169553 L16.7742462,13.4206406 C17.8201508,11.5861966 18.1978655,9.45444482 17.8379602,7.41226632" id="Fill-9" fill="#5D616B"></path>
                <path d="M9.03019634,8.84368415 L14.7116249,2.06907606 C13.0503867,0.687072769 11.1907677,0.00984065739 9.03019634,2.5699013e-05 L9.03019634,8.84368415 Z" id="Fill-11" fill="#5D616B"></path>
                <ellipse id="Oval" fill="#21262C" cx="8.99998876" cy="9.06936003" rx="4.57377062" ry="4.56311517"></ellipse>
            </g>
        </g>
    </g>
</svg>