<svg width="12" height="17" viewBox="0 0 12 17" fill="none" xmlns="http://www.w3.org/2000/svg">
<path fill-rule="evenodd" clip-rule="evenodd" d="M0 6.22257C0 2.79149 2.69035 0 5.99712 0C9.30389 0 11.9942 2.78551 12 6.22855C12 8.02778 10.5137 10.7535 9.26356 12.7261C7.92703 14.8361 6.46952 16.7131 6.18723 16.9283C6.14114 16.9582 6.06625 17 5.96832 17C5.90494 17 5.83005 16.9821 5.7494 16.9402C5.16179 16.6294 3.6121 14.4416 2.51176 12.5946C1.57273 11.0105 0 8.08755 0 6.22257ZM3.17427 6.2943C3.17427 7.91421 4.43591 9.22328 5.99712 9.22328C7.55833 9.22328 8.81997 7.91421 8.81997 6.2943C8.81997 4.6744 7.55833 3.36533 5.99712 3.36533C4.43591 3.36533 3.17427 4.6744 3.17427 6.2943Z" fill="#58585B"/>
</svg>
