<svg width="200" height="67" viewBox="0 0 200 67" fill="none" xmlns="http://www.w3.org/2000/svg">
<path fill-rule="evenodd" clip-rule="evenodd" d="M195.291 39.3181H195.011C191.572 40.6565 187.71 41.0092 185.047 40.2318C182.096 39.3903 180.416 36.8577 180.976 33.9726C189.677 34.6779 193.395 33.0589 195.435 31.8648C200.84 28.627 202.168 19.9795 195.155 17.447C188.981 15.1949 180.345 16.2528 176.282 21.1736C172.564 25.6777 171.508 30.5985 172.076 36.1525C172.5 40.3039 175.307 46.2105 184.567 47.1962C190.181 47.7572 193.763 46.2826 194.043 46.2105L195.291 39.3181ZM183.711 23.9145C184.975 22.3678 187.358 21.4541 189.045 22.0151C191.148 22.6483 191.852 25.0366 190.381 26.6555C189.893 27.2165 189.189 27.6412 188.485 27.9217C186.31 28.7632 184.063 28.6991 181.68 28.2744C182.024 26.5833 182.656 25.1808 183.711 23.9145ZM154.731 46.7715H145.678C147.71 36.6414 149.605 26.8718 151.644 16.7417H158.665V22.2956C159.577 20.0436 160.912 17.8637 163.088 16.9501C165.191 16.0364 168.493 16.1086 171.86 17.0943C170.525 19.699 169.541 21.943 168.07 24.7561C166.806 24.4756 165.614 24.195 164.423 24.0508C161.76 23.7703 159.865 24.8282 158.953 27.3527C158.321 29.1078 157.897 31.0072 157.546 32.8345C156.554 37.4909 155.714 42.1313 154.731 46.7715ZM104.911 16.7417L96.634 35.5915L96.4261 35.5194L95.3065 17.2306H86.2542L77.4817 35.5834L77.2738 35.4393L76.9219 16.7337H68.2773L69.9647 46.7635H79.2969L88.3493 27.2165H88.5572L89.9647 46.7635H99.3689L112.979 16.7337H104.911V16.7417ZM111.716 57.038C117.818 57.8795 121.608 56.7575 124.487 53.8723C126.31 52.0449 127.718 49.9372 128.909 47.6851C133.819 38.6129 145.75 16.7417 145.75 16.7417H137.186L128.277 34.6779L125.47 16.7417H116.346V17.1665C116.346 17.1665 119.433 33.5559 120.976 41.9949C121.184 43.2612 121.464 46.4991 119.225 48.5346C117.961 49.7288 116.138 50.6424 112.979 50.1535L111.716 57.038Z" fill="#061027"/>
<path fill-rule="evenodd" clip-rule="evenodd" d="M34.0335 33.4756H54.5933L43.5097 60.6923C41.9663 64.4911 38.3198 66.9515 34.2494 66.9515H13.6816L24.7732 39.7348C26.3166 35.8719 29.9631 33.4756 34.0335 33.4756Z" fill="#94C5FF"/>
<path fill-rule="evenodd" clip-rule="evenodd" d="M54.5934 33.4756L42.1024 49.3761C40.2071 51.9086 37.3283 53.5275 33.9616 53.5275H19.0156L24.7014 39.6707C26.2447 35.944 29.8913 33.4836 33.9616 33.4836H54.5934V33.4756Z" fill="#1A32AF"/>
<path fill-rule="evenodd" clip-rule="evenodd" d="M27.1565 16.7422H47.7163L36.6328 43.9589C35.0894 47.7577 31.4428 50.2181 27.3725 50.2181H6.80469L17.8883 23.0014C19.4396 19.2026 23.1581 16.7422 27.1565 16.7422Z" fill="#0092FF"/>
<path fill-rule="evenodd" clip-rule="evenodd" d="M47.7887 16.7422L35.2977 32.6347C33.4025 35.1672 30.5236 36.7861 27.157 36.7861H12.2109L17.8967 22.9293C19.44 19.2026 23.0866 16.7422 27.157 16.7422H47.7887Z" fill="#1A32AF"/>
<path fill-rule="evenodd" clip-rule="evenodd" d="M20.3519 0H40.9116L29.8201 27.2167C28.2767 31.0156 24.6301 33.476 20.5598 33.476H0L11.0836 6.25921C12.6349 2.46842 16.2815 0 20.3519 0Z" fill="#0055FF"/>
</svg>
