<svg width="60" height="69" viewBox="0 0 60 69" fill="none" xmlns="http://www.w3.org/2000/svg">
<path fill-rule="evenodd" clip-rule="evenodd" d="M9.26662 14.3373L14.2515 11.4571L14.9229 12.6168L33.2978 1.95624L31.9549 1.17884L30.6058 0.3887L29.9344 0L0 17.3959V18.1733L8.59522 13.1712L9.26662 14.3373Z" fill="#212122"/>
<path fill-rule="evenodd" clip-rule="evenodd" d="M9.26662 25.2909L23.6701 16.918L24.3415 18.0968L42.7164 7.42985L41.3736 6.63971L40.0244 5.86231L39.353 5.47998L0 28.3368V29.1142L8.59522 24.1121L9.26662 25.2909Z" fill="#212122"/>
<path fill-rule="evenodd" clip-rule="evenodd" d="M9.26662 30.7649L28.3762 19.6646L29.054 20.8307L47.4225 10.151L46.0797 9.38636L44.7369 8.59622L44.0592 8.20752L0 33.798V34.5882L8.59522 29.5924L9.26662 30.7649Z" fill="#212122"/>
<path fill-rule="evenodd" clip-rule="evenodd" d="M9.26662 36.2318L33.2217 22.3214L33.8995 23.4875L52.135 12.897L50.7922 12.1069L49.4431 11.3295L48.7717 10.9408L0 39.2777V40.0551L8.59522 35.0529L9.26662 36.2318Z" fill="#212122"/>
<path fill-rule="evenodd" clip-rule="evenodd" d="M9.26662 41.6929L37.9342 25.0489L38.6056 26.2278L56.8412 15.6246L55.4984 14.8535L54.1556 14.0634L53.4778 13.6747L0 44.7388V45.5162L8.59522 40.5268L9.26662 41.6929Z" fill="#212122"/>
<path fill-rule="evenodd" clip-rule="evenodd" d="M58.862 16.8034L58.1906 16.4083L0.000244141 50.2189V50.9963L8.59546 46.0069L9.26686 47.173L37.9345 30.529L38.6059 31.6951L59.8691 19.3523V17.7847V17.396L58.862 16.8034Z" fill="#212122"/>
<path fill-rule="evenodd" clip-rule="evenodd" d="M3.68632 54.3158L8.50648 51.5185L9.17789 52.6846L37.7948 36.066L38.4662 37.2449L59.8688 24.8129V23.2453V21.6778V20.901L3.02759 53.9278L3.68632 54.3158Z" fill="#212122"/>
<path fill-rule="evenodd" clip-rule="evenodd" d="M37.795 41.5462L38.4664 42.7256L59.8689 30.293V28.7254V27.1579V26.3805L7.73389 56.6615L8.41162 57.0496L13.3015 54.2012L13.9792 55.3801" fill="#212122"/>
<path fill-rule="evenodd" clip-rule="evenodd" d="M13.1178 59.79L18.014 56.9353L18.6854 58.1135L37.795 47.0068L38.4664 48.1863L59.8689 35.7537V34.1861V32.6313V31.8475L12.4337 59.3879L13.1178 59.79Z" fill="#212122"/>
<path fill-rule="evenodd" clip-rule="evenodd" d="M17.824 62.5237L22.7202 59.6811L23.3979 60.8472L37.795 52.4876L38.4664 53.6531L59.869 41.221V39.6669V38.0993V37.3213L17.1526 62.135L17.824 62.5237Z" fill="#212122"/>
<path fill-rule="evenodd" clip-rule="evenodd" d="M21.865 64.8685L22.5364 65.2566L27.4452 62.4089L28.104 63.5877L37.795 57.9484L38.4664 59.1272L59.8689 46.6946V45.1277V43.5601V42.7827L21.865 64.8685Z" fill="#212122"/>
<path fill-rule="evenodd" clip-rule="evenodd" d="M27.2424 68.0036L32.1386 65.1425L32.81 66.3213L37.7949 63.4156L38.4663 64.5945L59.8688 52.1752V50.6076V49.0401V48.2627L26.571 67.6149L27.2424 68.0036Z" fill="#212122"/>
<path fill-rule="evenodd" clip-rule="evenodd" d="M38.0102 4.69013L36.6611 3.91273L35.3183 3.13533L34.6469 2.73389L0 22.8571V23.6345L8.59522 18.6515L9.26662 19.8112L18.9576 14.1846L19.648 15.3635L38.0102 4.69013Z" fill="#212122"/>
</svg>
