<svg width="21" height="21" viewBox="0 0 21 21" fill="none" xmlns="http://www.w3.org/2000/svg">
<path fill-rule="evenodd" clip-rule="evenodd" d="M10.9492 20.2992C16.1128 20.2992 20.2987 16.1133 20.2987 10.9497C20.2987 5.78604 16.1128 1.6001 10.9492 1.6001C5.78555 1.6001 1.59961 5.78604 1.59961 10.9497C1.59961 16.1133 5.78555 20.2992 10.9492 20.2992Z" stroke="white" stroke-width="1.27008"/>
<path fill-rule="evenodd" clip-rule="evenodd" d="M9.78027 5.10596H12.1177L11.6848 12.1181H10.2131L9.78027 5.10596ZM10.9414 14.4555C11.2732 14.4555 11.5597 14.5639 11.7859 14.7806C11.997 14.9973 12.1177 15.2759 12.1177 15.6165C12.1177 15.957 11.997 16.2511 11.7859 16.4678C11.5446 16.6846 11.2732 16.7929 10.9414 16.7929C10.6097 16.7929 10.3382 16.6691 10.1271 16.4524C9.88583 16.2357 9.78027 15.957 9.78027 15.6165C9.78027 15.2759 9.88583 14.9973 10.1271 14.7806C10.3382 14.5639 10.6097 14.4555 10.9414 14.4555Z" fill="white"/>
</svg>
