<svg width="22" height="19" viewBox="0 0 22 19" fill="none" xmlns="http://www.w3.org/2000/svg">
<path d="M16.6859 18.3253C16.7239 18.3177 16.7596 18.304 16.7956 18.2913C16.8149 18.2843 16.8352 18.2809 16.8542 18.2726C16.8942 18.2552 16.9312 18.2331 16.9685 18.2101C16.9816 18.2024 16.9961 18.1964 17.0088 18.1881C17.0576 18.1543 17.1035 18.1162 17.1451 18.0738L21.2362 13.9017C21.5879 13.543 21.5879 12.9617 21.2362 12.6027C20.8847 12.2439 20.3144 12.2439 19.9623 12.6027L17.4081 15.2071L17.4081 1.61391C17.4081 1.10651 17.0049 0.695312 16.5074 0.695312C16.0098 0.695312 15.6066 1.10651 15.6066 1.61391L15.6066 15.2071L13.0521 12.602C12.7006 12.2432 12.1303 12.2432 11.7782 12.602C11.6023 12.7814 11.5142 13.0162 11.5142 13.2514C11.5142 13.4865 11.6023 13.7213 11.7782 13.9007L15.87 18.0738C15.9116 18.1162 15.9574 18.1543 16.0062 18.1881C16.019 18.1964 16.0334 18.2024 16.0465 18.2101C16.0835 18.2328 16.1209 18.2552 16.1608 18.2726C16.1798 18.2806 16.2001 18.2843 16.2194 18.2913C16.2555 18.3036 16.2912 18.3173 16.3292 18.3253C16.3875 18.337 16.4468 18.3437 16.5074 18.3437C16.568 18.3437 16.6276 18.337 16.6859 18.3253Z" fill="#006FE8" stroke="white" stroke-width="0.5"/>
<path d="M6.73286 17.2298L6.73286 3.63659L9.2874 6.24173C9.63886 6.60048 10.2091 6.60048 10.5612 6.24173C10.9133 5.88297 10.913 5.30175 10.5612 4.94266L6.46918 0.769566C6.42759 0.727144 6.38173 0.689064 6.33292 0.655326C6.32048 0.647309 6.30672 0.641631 6.29427 0.634282C6.25693 0.611234 6.21927 0.588185 6.17832 0.571149C6.15965 0.563467 6.13967 0.559792 6.12067 0.552778C6.08432 0.540418 6.04829 0.526389 6.00996 0.518372C5.95166 0.506347 5.89237 0.5 5.83178 0.5C5.77118 0.5 5.71189 0.506347 5.65359 0.518372C5.61527 0.526055 5.57924 0.540084 5.54288 0.552778C5.52388 0.559792 5.5039 0.563133 5.48523 0.571149C5.44462 0.588519 5.40695 0.611234 5.36928 0.634282C5.35683 0.641631 5.34308 0.647309 5.33063 0.655326C5.28182 0.689064 5.23597 0.727144 5.19437 0.769566L1.10297 4.942C0.927082 5.12137 0.838972 5.3562 0.838972 5.59136C0.838972 5.82652 0.927082 6.06135 1.10297 6.24072C1.45443 6.59948 2.02469 6.59948 2.37681 6.24072L4.93102 3.63625L4.93102 17.2295C4.93102 17.7369 5.33423 18.1481 5.83178 18.1481C6.32932 18.1481 6.73286 17.7372 6.73286 17.2298Z" fill="#979797" stroke="white" stroke-width="0.5"/>
</svg>
